<mxfile host="app.diagrams.net" agent="Mozilla/5.0 (Windows NT 10.0; Win64; x64) AppleWebKit/537.36 (KHTML, like Gecko) Chrome/128.0.0.0 Safari/537.36" version="24.7.8">
  <diagram name="Página-1" id="MryHvfCQFrwuckrOAF8G">
    <mxGraphModel dx="1354" dy="628" grid="1" gridSize="10" guides="1" tooltips="1" connect="1" arrows="1" fold="1" page="1" pageScale="1" pageWidth="2339" pageHeight="3300" math="0" shadow="0">
      <root>
        <mxCell id="0" />
        <mxCell id="1" parent="0" />
        <mxCell id="hSlv8abUKsiorukbBcao-3" value="jogador" style="swimlane;childLayout=stackLayout;horizontal=1;startSize=50;horizontalStack=0;rounded=1;fontSize=14;fontStyle=0;strokeWidth=2;resizeParent=0;resizeLast=1;shadow=0;dashed=0;align=center;arcSize=4;whiteSpace=wrap;html=1;" vertex="1" parent="1">
          <mxGeometry x="120" y="410" width="150" height="220" as="geometry" />
        </mxCell>
        <mxCell id="hSlv8abUKsiorukbBcao-4" value="codigo PK&lt;div&gt;nome&lt;/div&gt;&lt;div&gt;endereco&lt;/div&gt;&lt;div&gt;cidade&lt;/div&gt;&lt;div&gt;estado&lt;/div&gt;&lt;div&gt;telefone&lt;/div&gt;&lt;div&gt;sexo&lt;/div&gt;&lt;div&gt;data_nasc&lt;/div&gt;&lt;div&gt;peso&lt;/div&gt;&lt;div&gt;altura&lt;/div&gt;" style="align=left;strokeColor=none;fillColor=none;spacingLeft=4;fontSize=12;verticalAlign=top;resizable=0;rotatable=0;part=1;html=1;" vertex="1" parent="hSlv8abUKsiorukbBcao-3">
          <mxGeometry y="50" width="150" height="170" as="geometry" />
        </mxCell>
        <mxCell id="hSlv8abUKsiorukbBcao-5" value="equipe" style="swimlane;childLayout=stackLayout;horizontal=1;startSize=50;horizontalStack=0;rounded=1;fontSize=14;fontStyle=0;strokeWidth=2;resizeParent=0;resizeLast=1;shadow=0;dashed=0;align=center;arcSize=4;whiteSpace=wrap;html=1;" vertex="1" parent="1">
          <mxGeometry x="390" y="410" width="150" height="220" as="geometry" />
        </mxCell>
        <mxCell id="hSlv8abUKsiorukbBcao-6" value="codigo PK&lt;div&gt;nome&lt;/div&gt;&lt;div&gt;endereco&lt;/div&gt;&lt;div&gt;cidade&lt;/div&gt;&lt;div&gt;estado&lt;/div&gt;&lt;div&gt;tecnico&lt;/div&gt;&lt;div&gt;preparador_fisico&lt;/div&gt;" style="align=left;strokeColor=none;fillColor=none;spacingLeft=4;fontSize=12;verticalAlign=top;resizable=0;rotatable=0;part=1;html=1;" vertex="1" parent="hSlv8abUKsiorukbBcao-5">
          <mxGeometry y="50" width="150" height="170" as="geometry" />
        </mxCell>
        <mxCell id="hSlv8abUKsiorukbBcao-7" value="&lt;font color=&quot;#ff0000&quot;&gt;MODELO LÓGICO&lt;/font&gt;" style="text;html=1;align=center;verticalAlign=middle;whiteSpace=wrap;rounded=0;fontSize=20;" vertex="1" parent="1">
          <mxGeometry x="120" y="30" width="205" height="30" as="geometry" />
        </mxCell>
        <mxCell id="hSlv8abUKsiorukbBcao-8" value="" style="edgeStyle=entityRelationEdgeStyle;fontSize=12;html=1;endArrow=ERoneToMany;startArrow=ERmandOne;rounded=0;entryX=1.013;entryY=0.364;entryDx=0;entryDy=0;entryPerimeter=0;exitX=-0.017;exitY=0.618;exitDx=0;exitDy=0;exitPerimeter=0;" edge="1" parent="1" source="hSlv8abUKsiorukbBcao-6" target="hSlv8abUKsiorukbBcao-4">
          <mxGeometry width="100" height="100" relative="1" as="geometry">
            <mxPoint x="390" y="555" as="sourcePoint" />
            <mxPoint x="380" y="490" as="targetPoint" />
            <Array as="points">
              <mxPoint x="360" y="530" />
            </Array>
          </mxGeometry>
        </mxCell>
        <mxCell id="hSlv8abUKsiorukbBcao-10" value="&lt;p style=&quot;language:pt-BR;margin-top:0pt;margin-bottom:0pt;margin-left:0in;&lt;br/&gt;text-align:justify;text-justify:inter-ideograph;direction:ltr;unicode-bidi:&lt;br/&gt;embed;mso-line-break-override:none;word-break:normal;punctuation-wrap:hanging&quot;&gt;&lt;font style=&quot;font-size: 12px;&quot;&gt;&lt;span style=&quot;font-family: &amp;quot;Open Sans&amp;quot;; font-weight: bold;&quot;&gt;No nível conceitual, &lt;/span&gt;&lt;span style=&quot;font-family: &amp;quot;Open Sans&amp;quot;;&quot;&gt;é&lt;br&gt;feita a representação abstrata do negócio, onde são definidas as entidades,&lt;br&gt;seus atributos e relacionamentos. É importante entender o negócio, seus&lt;br&gt;processos e as necessidades dos usuários para garantir que o modelo conceitual&lt;br&gt;atenda às necessidades do negócio.&lt;/span&gt;&lt;/font&gt;&lt;/p&gt;&lt;p style=&quot;language:pt-BR;margin-top:0pt;margin-bottom:0pt;margin-left:0in;&lt;br/&gt;text-align:justify;text-justify:inter-ideograph;direction:ltr;unicode-bidi:&lt;br/&gt;embed;mso-line-break-override:none;word-break:normal;punctuation-wrap:hanging&quot;&gt;&lt;font style=&quot;font-size: 12px;&quot;&gt;&lt;span style=&quot;font-family: &amp;quot;Open Sans&amp;quot;; font-weight: bold;&quot;&gt;No nível lógico&lt;/span&gt;&lt;span style=&quot;font-family: &amp;quot;Open Sans&amp;quot;;&quot;&gt;,&lt;br&gt;a modelagem é mais detalhada, as tabelas são criadas e as colunas, tipos de&lt;br&gt;dados, chaves primárias e estrangeiras e restrições são definidas. Nesse nível,&lt;br&gt;as regras de integridade e normalização são estabelecidas para garantir a&lt;br&gt;consistência dos dados.&amp;nbsp;&lt;/span&gt;&lt;/font&gt;&lt;/p&gt;" style="text;html=1;align=left;verticalAlign=middle;whiteSpace=wrap;rounded=0;" vertex="1" parent="1">
          <mxGeometry x="120" y="130" width="480" height="30" as="geometry" />
        </mxCell>
        <mxCell id="hSlv8abUKsiorukbBcao-11" value="&lt;font color=&quot;#ff0000&quot;&gt;EXEMPLO 1&lt;/font&gt;" style="text;html=1;align=left;verticalAlign=middle;whiteSpace=wrap;rounded=0;fontSize=20;" vertex="1" parent="1">
          <mxGeometry x="120" y="360" width="205" height="30" as="geometry" />
        </mxCell>
        <mxCell id="hSlv8abUKsiorukbBcao-12" value="&lt;font color=&quot;#ff0000&quot;&gt;EXEMPLO 2&lt;/font&gt;" style="text;html=1;align=left;verticalAlign=middle;whiteSpace=wrap;rounded=0;fontSize=20;" vertex="1" parent="1">
          <mxGeometry x="120" y="680" width="205" height="30" as="geometry" />
        </mxCell>
        <mxCell id="hSlv8abUKsiorukbBcao-13" value="cliente" style="swimlane;childLayout=stackLayout;horizontal=1;startSize=50;horizontalStack=0;rounded=1;fontSize=14;fontStyle=0;strokeWidth=2;resizeParent=0;resizeLast=1;shadow=0;dashed=0;align=center;arcSize=4;whiteSpace=wrap;html=1;" vertex="1" parent="1">
          <mxGeometry x="120" y="720" width="150" height="160" as="geometry" />
        </mxCell>
        <mxCell id="hSlv8abUKsiorukbBcao-14" value="cpf PK&lt;div&gt;nome&lt;/div&gt;&lt;div&gt;endereco&lt;/div&gt;&lt;div&gt;cep&lt;/div&gt;&lt;div&gt;cidade&lt;/div&gt;&lt;div&gt;estado&lt;/div&gt;&lt;div&gt;bairro&lt;/div&gt;" style="align=left;strokeColor=none;fillColor=none;spacingLeft=4;fontSize=12;verticalAlign=top;resizable=0;rotatable=0;part=1;html=1;" vertex="1" parent="hSlv8abUKsiorukbBcao-13">
          <mxGeometry y="50" width="150" height="110" as="geometry" />
        </mxCell>
        <mxCell id="hSlv8abUKsiorukbBcao-17" style="edgeStyle=orthogonalEdgeStyle;rounded=0;orthogonalLoop=1;jettySize=auto;html=1;exitX=0.5;exitY=1;exitDx=0;exitDy=0;" edge="1" parent="hSlv8abUKsiorukbBcao-13" source="hSlv8abUKsiorukbBcao-14" target="hSlv8abUKsiorukbBcao-14">
          <mxGeometry relative="1" as="geometry" />
        </mxCell>
        <mxCell id="hSlv8abUKsiorukbBcao-15" value="encomenda" style="swimlane;childLayout=stackLayout;horizontal=1;startSize=50;horizontalStack=0;rounded=1;fontSize=14;fontStyle=0;strokeWidth=2;resizeParent=0;resizeLast=1;shadow=0;dashed=0;align=center;arcSize=4;whiteSpace=wrap;html=1;" vertex="1" parent="1">
          <mxGeometry x="380" y="720" width="140" height="160" as="geometry" />
        </mxCell>
        <mxCell id="hSlv8abUKsiorukbBcao-16" value="codigo PK&lt;div&gt;data_entrega&lt;/div&gt;&lt;div&gt;&lt;span style=&quot;background-color: initial;&quot;&gt;endereco_entrega&lt;/span&gt;&lt;/div&gt;&lt;div&gt;nota_fiscal&lt;/div&gt;&lt;div&gt;peso&lt;/div&gt;&lt;div&gt;transportadora&lt;/div&gt;&lt;div&gt;&lt;br&gt;&lt;/div&gt;" style="align=left;strokeColor=none;fillColor=none;spacingLeft=4;fontSize=12;verticalAlign=top;resizable=0;rotatable=0;part=1;html=1;" vertex="1" parent="hSlv8abUKsiorukbBcao-15">
          <mxGeometry y="50" width="140" height="110" as="geometry" />
        </mxCell>
        <mxCell id="hSlv8abUKsiorukbBcao-23" value="" style="edgeStyle=entityRelationEdgeStyle;fontSize=12;html=1;endArrow=ERoneToMany;startArrow=ERmandOne;rounded=0;entryX=0;entryY=0.25;entryDx=0;entryDy=0;" edge="1" parent="1" target="hSlv8abUKsiorukbBcao-16">
          <mxGeometry width="100" height="100" relative="1" as="geometry">
            <mxPoint x="270" y="850" as="sourcePoint" />
            <mxPoint x="370" y="750" as="targetPoint" />
          </mxGeometry>
        </mxCell>
        <mxCell id="hSlv8abUKsiorukbBcao-25" value="&lt;font color=&quot;#ff0000&quot;&gt;Chave Primary Key (PK) :&lt;/font&gt;&amp;nbsp;&lt;span style=&quot;background-color: initial;&quot;&gt;Essa chave é utilizada como identificador único da tabela, sendo representada por aquele campo (ou campos) que não receberá valores repetidos.&lt;/span&gt;" style="text;html=1;align=left;verticalAlign=middle;whiteSpace=wrap;rounded=0;" vertex="1" parent="1">
          <mxGeometry x="120" y="230" width="450" height="30" as="geometry" />
        </mxCell>
        <mxCell id="hSlv8abUKsiorukbBcao-27" value="&lt;font color=&quot;#ff0000&quot;&gt;Chave estrangeira&amp;nbsp; (FK):&lt;/font&gt; A chave estrangeira é uma referência em uma tabela a uma chave primária de outra tabela." style="text;html=1;align=left;verticalAlign=middle;whiteSpace=wrap;rounded=0;" vertex="1" parent="1">
          <mxGeometry x="120" y="280" width="420" height="30" as="geometry" />
        </mxCell>
        <mxCell id="hSlv8abUKsiorukbBcao-28" value="&lt;font color=&quot;#ff0000&quot;&gt;EXEMPLO 3&lt;/font&gt;" style="text;html=1;align=left;verticalAlign=middle;whiteSpace=wrap;rounded=0;fontSize=20;" vertex="1" parent="1">
          <mxGeometry x="110" y="930" width="205" height="30" as="geometry" />
        </mxCell>
        <mxCell id="hSlv8abUKsiorukbBcao-29" value="escola" style="swimlane;childLayout=stackLayout;horizontal=1;startSize=50;horizontalStack=0;rounded=1;fontSize=14;fontStyle=0;strokeWidth=2;resizeParent=0;resizeLast=1;shadow=0;dashed=0;align=center;arcSize=4;whiteSpace=wrap;html=1;" vertex="1" parent="1">
          <mxGeometry x="110" y="980" width="150" height="160" as="geometry" />
        </mxCell>
        <mxCell id="hSlv8abUKsiorukbBcao-30" value="cnpj PK&lt;div&gt;nome&lt;/div&gt;&lt;div&gt;endereco&lt;/div&gt;&lt;div&gt;bairro&lt;/div&gt;&lt;div&gt;cidade&lt;/div&gt;&lt;div&gt;estado&lt;/div&gt;" style="align=left;strokeColor=none;fillColor=none;spacingLeft=4;fontSize=12;verticalAlign=top;resizable=0;rotatable=0;part=1;html=1;" vertex="1" parent="hSlv8abUKsiorukbBcao-29">
          <mxGeometry y="50" width="150" height="110" as="geometry" />
        </mxCell>
        <mxCell id="hSlv8abUKsiorukbBcao-31" style="edgeStyle=orthogonalEdgeStyle;rounded=0;orthogonalLoop=1;jettySize=auto;html=1;exitX=0.5;exitY=1;exitDx=0;exitDy=0;" edge="1" parent="hSlv8abUKsiorukbBcao-29" source="hSlv8abUKsiorukbBcao-30" target="hSlv8abUKsiorukbBcao-30">
          <mxGeometry relative="1" as="geometry" />
        </mxCell>
        <mxCell id="hSlv8abUKsiorukbBcao-32" value="turmas" style="swimlane;childLayout=stackLayout;horizontal=1;startSize=50;horizontalStack=0;rounded=1;fontSize=14;fontStyle=0;strokeWidth=2;resizeParent=0;resizeLast=1;shadow=0;dashed=0;align=center;arcSize=4;whiteSpace=wrap;html=1;" vertex="1" parent="1">
          <mxGeometry x="340" y="980" width="150" height="160" as="geometry" />
        </mxCell>
        <mxCell id="hSlv8abUKsiorukbBcao-33" value="codigo PK&lt;div&gt;num_sala&lt;/div&gt;&lt;div&gt;num_alunos&lt;/div&gt;&lt;div&gt;periodo&lt;/div&gt;&lt;div&gt;cnpj_escola FK&lt;/div&gt;" style="align=left;strokeColor=none;fillColor=none;spacingLeft=4;fontSize=12;verticalAlign=top;resizable=0;rotatable=0;part=1;html=1;" vertex="1" parent="hSlv8abUKsiorukbBcao-32">
          <mxGeometry y="50" width="150" height="110" as="geometry" />
        </mxCell>
        <mxCell id="hSlv8abUKsiorukbBcao-34" style="edgeStyle=orthogonalEdgeStyle;rounded=0;orthogonalLoop=1;jettySize=auto;html=1;exitX=0.5;exitY=1;exitDx=0;exitDy=0;" edge="1" parent="hSlv8abUKsiorukbBcao-32" source="hSlv8abUKsiorukbBcao-33" target="hSlv8abUKsiorukbBcao-33">
          <mxGeometry relative="1" as="geometry" />
        </mxCell>
        <mxCell id="hSlv8abUKsiorukbBcao-38" value="professores" style="swimlane;childLayout=stackLayout;horizontal=1;startSize=50;horizontalStack=0;rounded=1;fontSize=14;fontStyle=0;strokeWidth=2;resizeParent=0;resizeLast=1;shadow=0;dashed=0;align=center;arcSize=4;whiteSpace=wrap;html=1;" vertex="1" parent="1">
          <mxGeometry x="570" y="980" width="150" height="160" as="geometry" />
        </mxCell>
        <mxCell id="hSlv8abUKsiorukbBcao-39" value="&lt;div&gt;codigo PK&lt;/div&gt;&lt;div&gt;&lt;span style=&quot;background-color: initial;&quot;&gt;nome&lt;/span&gt;&lt;/div&gt;&lt;div&gt;telefone&lt;/div&gt;&lt;div&gt;disciplina&lt;/div&gt;&lt;div&gt;codigo_turma FK&lt;/div&gt;" style="align=left;strokeColor=none;fillColor=none;spacingLeft=4;fontSize=12;verticalAlign=top;resizable=0;rotatable=0;part=1;html=1;" vertex="1" parent="hSlv8abUKsiorukbBcao-38">
          <mxGeometry y="50" width="150" height="110" as="geometry" />
        </mxCell>
        <mxCell id="hSlv8abUKsiorukbBcao-40" style="edgeStyle=orthogonalEdgeStyle;rounded=0;orthogonalLoop=1;jettySize=auto;html=1;exitX=0.5;exitY=1;exitDx=0;exitDy=0;" edge="1" parent="hSlv8abUKsiorukbBcao-38" source="hSlv8abUKsiorukbBcao-39" target="hSlv8abUKsiorukbBcao-39">
          <mxGeometry relative="1" as="geometry" />
        </mxCell>
        <mxCell id="hSlv8abUKsiorukbBcao-41" value="" style="edgeStyle=entityRelationEdgeStyle;fontSize=12;html=1;endArrow=ERoneToMany;startArrow=ERmandOne;rounded=0;exitX=1;exitY=0.75;exitDx=0;exitDy=0;" edge="1" parent="1" source="hSlv8abUKsiorukbBcao-30">
          <mxGeometry width="100" height="100" relative="1" as="geometry">
            <mxPoint x="240" y="1160" as="sourcePoint" />
            <mxPoint x="340" y="1060" as="targetPoint" />
          </mxGeometry>
        </mxCell>
        <mxCell id="hSlv8abUKsiorukbBcao-42" value="" style="edgeStyle=entityRelationEdgeStyle;fontSize=12;html=1;endArrow=ERoneToMany;startArrow=ERoneToMany;rounded=0;entryX=0;entryY=0.25;entryDx=0;entryDy=0;" edge="1" parent="1" target="hSlv8abUKsiorukbBcao-39">
          <mxGeometry width="100" height="100" relative="1" as="geometry">
            <mxPoint x="490" y="1100" as="sourcePoint" />
            <mxPoint x="590" y="1000" as="targetPoint" />
          </mxGeometry>
        </mxCell>
        <mxCell id="hSlv8abUKsiorukbBcao-43" value="turma_professor" style="swimlane;childLayout=stackLayout;horizontal=1;startSize=50;horizontalStack=0;rounded=1;fontSize=14;fontStyle=0;strokeWidth=2;resizeParent=0;resizeLast=1;shadow=0;dashed=0;align=center;arcSize=4;whiteSpace=wrap;html=1;" vertex="1" parent="1">
          <mxGeometry x="460" y="1170" width="150" height="100" as="geometry" />
        </mxCell>
        <mxCell id="hSlv8abUKsiorukbBcao-44" value="&lt;div&gt;codigo_turma FK&lt;br&gt;codigo_professor&lt;/div&gt;" style="align=left;strokeColor=none;fillColor=none;spacingLeft=4;fontSize=12;verticalAlign=top;resizable=0;rotatable=0;part=1;html=1;" vertex="1" parent="hSlv8abUKsiorukbBcao-43">
          <mxGeometry y="50" width="150" height="50" as="geometry" />
        </mxCell>
        <mxCell id="hSlv8abUKsiorukbBcao-45" style="edgeStyle=orthogonalEdgeStyle;rounded=0;orthogonalLoop=1;jettySize=auto;html=1;exitX=0.5;exitY=1;exitDx=0;exitDy=0;" edge="1" parent="hSlv8abUKsiorukbBcao-43" source="hSlv8abUKsiorukbBcao-44" target="hSlv8abUKsiorukbBcao-44">
          <mxGeometry relative="1" as="geometry" />
        </mxCell>
        <mxCell id="hSlv8abUKsiorukbBcao-46" value="no modelo físico, tem que criar outra tabela quando há um relacionamento N-N" style="text;strokeColor=none;fillColor=none;spacingLeft=4;spacingRight=4;overflow=hidden;rotatable=0;points=[[0,0.5],[1,0.5]];portConstraint=eastwest;fontSize=12;whiteSpace=wrap;html=1;" vertex="1" parent="1">
          <mxGeometry x="290" y="1205" width="170" height="55" as="geometry" />
        </mxCell>
        <mxCell id="hSlv8abUKsiorukbBcao-47" value="&lt;font color=&quot;#ff0000&quot;&gt;EXERCICIO 1&lt;/font&gt;" style="text;html=1;align=left;verticalAlign=middle;whiteSpace=wrap;rounded=0;fontSize=20;" vertex="1" parent="1">
          <mxGeometry x="120" y="1330" width="205" height="30" as="geometry" />
        </mxCell>
        <mxCell id="hSlv8abUKsiorukbBcao-48" value="aluno" style="swimlane;childLayout=stackLayout;horizontal=1;startSize=50;horizontalStack=0;rounded=1;fontSize=14;fontStyle=0;strokeWidth=2;resizeParent=0;resizeLast=1;shadow=0;dashed=0;align=center;arcSize=4;whiteSpace=wrap;html=1;" vertex="1" parent="1">
          <mxGeometry x="120" y="1370" width="150" height="160" as="geometry" />
        </mxCell>
        <mxCell id="hSlv8abUKsiorukbBcao-49" value="matricula PK&lt;br&gt;nome&lt;div&gt;idade&lt;/div&gt;&lt;div&gt;sexo&lt;/div&gt;&lt;div&gt;data_nasc&lt;/div&gt;&lt;div&gt;endereco&lt;/div&gt;&lt;div&gt;telefone&lt;/div&gt;&lt;div&gt;&lt;br&gt;&lt;/div&gt;" style="align=left;strokeColor=none;fillColor=none;spacingLeft=4;fontSize=12;verticalAlign=top;resizable=0;rotatable=0;part=1;html=1;" vertex="1" parent="hSlv8abUKsiorukbBcao-48">
          <mxGeometry y="50" width="150" height="110" as="geometry" />
        </mxCell>
        <mxCell id="hSlv8abUKsiorukbBcao-50" style="edgeStyle=orthogonalEdgeStyle;rounded=0;orthogonalLoop=1;jettySize=auto;html=1;exitX=0.5;exitY=1;exitDx=0;exitDy=0;" edge="1" parent="hSlv8abUKsiorukbBcao-48" source="hSlv8abUKsiorukbBcao-49" target="hSlv8abUKsiorukbBcao-49">
          <mxGeometry relative="1" as="geometry" />
        </mxCell>
        <mxCell id="hSlv8abUKsiorukbBcao-51" value="trabalho" style="swimlane;childLayout=stackLayout;horizontal=1;startSize=50;horizontalStack=0;rounded=1;fontSize=14;fontStyle=0;strokeWidth=2;resizeParent=0;resizeLast=1;shadow=0;dashed=0;align=center;arcSize=4;whiteSpace=wrap;html=1;" vertex="1" parent="1">
          <mxGeometry x="350" y="1370" width="150" height="120" as="geometry" />
        </mxCell>
        <mxCell id="hSlv8abUKsiorukbBcao-52" value="cod PK&lt;div&gt;tema&lt;/div&gt;&lt;div&gt;nota&lt;/div&gt;&lt;div&gt;&lt;br&gt;&lt;/div&gt;&lt;div&gt;&lt;br&gt;&lt;div&gt;&lt;br&gt;&lt;/div&gt;&lt;/div&gt;" style="align=left;strokeColor=none;fillColor=none;spacingLeft=4;fontSize=12;verticalAlign=top;resizable=0;rotatable=0;part=1;html=1;" vertex="1" parent="hSlv8abUKsiorukbBcao-51">
          <mxGeometry y="50" width="150" height="70" as="geometry" />
        </mxCell>
        <mxCell id="hSlv8abUKsiorukbBcao-53" style="edgeStyle=orthogonalEdgeStyle;rounded=0;orthogonalLoop=1;jettySize=auto;html=1;exitX=0.5;exitY=1;exitDx=0;exitDy=0;" edge="1" parent="hSlv8abUKsiorukbBcao-51" source="hSlv8abUKsiorukbBcao-52" target="hSlv8abUKsiorukbBcao-52">
          <mxGeometry relative="1" as="geometry" />
        </mxCell>
        <mxCell id="hSlv8abUKsiorukbBcao-55" style="edgeStyle=orthogonalEdgeStyle;rounded=0;orthogonalLoop=1;jettySize=auto;html=1;exitX=0.5;exitY=1;exitDx=0;exitDy=0;" edge="1" parent="hSlv8abUKsiorukbBcao-51" source="hSlv8abUKsiorukbBcao-52" target="hSlv8abUKsiorukbBcao-52">
          <mxGeometry relative="1" as="geometry" />
        </mxCell>
        <mxCell id="hSlv8abUKsiorukbBcao-56" value="professor" style="swimlane;childLayout=stackLayout;horizontal=1;startSize=50;horizontalStack=0;rounded=1;fontSize=14;fontStyle=0;strokeWidth=2;resizeParent=0;resizeLast=1;shadow=0;dashed=0;align=center;arcSize=4;whiteSpace=wrap;html=1;" vertex="1" parent="1">
          <mxGeometry x="570" y="1370" width="150" height="120" as="geometry" />
        </mxCell>
        <mxCell id="hSlv8abUKsiorukbBcao-57" value="&lt;div&gt;&lt;div&gt;cpf PK&lt;/div&gt;&lt;/div&gt;&lt;div&gt;nome&lt;/div&gt;&lt;div&gt;telefone&lt;/div&gt;" style="align=left;strokeColor=none;fillColor=none;spacingLeft=4;fontSize=12;verticalAlign=top;resizable=0;rotatable=0;part=1;html=1;" vertex="1" parent="hSlv8abUKsiorukbBcao-56">
          <mxGeometry y="50" width="150" height="70" as="geometry" />
        </mxCell>
        <mxCell id="hSlv8abUKsiorukbBcao-58" style="edgeStyle=orthogonalEdgeStyle;rounded=0;orthogonalLoop=1;jettySize=auto;html=1;exitX=0.5;exitY=1;exitDx=0;exitDy=0;" edge="1" parent="hSlv8abUKsiorukbBcao-56" source="hSlv8abUKsiorukbBcao-57" target="hSlv8abUKsiorukbBcao-57">
          <mxGeometry relative="1" as="geometry" />
        </mxCell>
        <mxCell id="hSlv8abUKsiorukbBcao-59" style="edgeStyle=orthogonalEdgeStyle;rounded=0;orthogonalLoop=1;jettySize=auto;html=1;exitX=0.5;exitY=1;exitDx=0;exitDy=0;" edge="1" parent="hSlv8abUKsiorukbBcao-56" source="hSlv8abUKsiorukbBcao-57" target="hSlv8abUKsiorukbBcao-57">
          <mxGeometry relative="1" as="geometry" />
        </mxCell>
        <mxCell id="hSlv8abUKsiorukbBcao-64" value="&lt;font color=&quot;#ff0000&quot;&gt;EXERCICIO 2&lt;/font&gt;" style="text;html=1;align=left;verticalAlign=middle;whiteSpace=wrap;rounded=0;fontSize=20;" vertex="1" parent="1">
          <mxGeometry x="110" y="1570" width="205" height="30" as="geometry" />
        </mxCell>
        <mxCell id="hSlv8abUKsiorukbBcao-65" value="atleta" style="swimlane;childLayout=stackLayout;horizontal=1;startSize=50;horizontalStack=0;rounded=1;fontSize=14;fontStyle=0;strokeWidth=2;resizeParent=0;resizeLast=1;shadow=0;dashed=0;align=center;arcSize=4;whiteSpace=wrap;html=1;" vertex="1" parent="1">
          <mxGeometry x="120" y="1610" width="150" height="230" as="geometry" />
        </mxCell>
        <mxCell id="hSlv8abUKsiorukbBcao-66" value="&lt;div&gt;codigo PK&lt;/div&gt;&lt;div&gt;nome&lt;/div&gt;&lt;div&gt;endereco&lt;/div&gt;&lt;div&gt;cidade&lt;/div&gt;&lt;div&gt;estado&lt;/div&gt;&lt;div&gt;telefone&lt;/div&gt;&lt;div&gt;sexo&lt;/div&gt;&lt;div&gt;datas_nasc&lt;/div&gt;&lt;div&gt;peso&lt;/div&gt;&lt;div&gt;altura&lt;/div&gt;&lt;div&gt;codigo_modalidade FK&lt;/div&gt;" style="align=left;strokeColor=none;fillColor=none;spacingLeft=4;fontSize=12;verticalAlign=top;resizable=0;rotatable=0;part=1;html=1;" vertex="1" parent="hSlv8abUKsiorukbBcao-65">
          <mxGeometry y="50" width="150" height="180" as="geometry" />
        </mxCell>
        <mxCell id="hSlv8abUKsiorukbBcao-67" style="edgeStyle=orthogonalEdgeStyle;rounded=0;orthogonalLoop=1;jettySize=auto;html=1;exitX=0.5;exitY=1;exitDx=0;exitDy=0;" edge="1" parent="hSlv8abUKsiorukbBcao-65" source="hSlv8abUKsiorukbBcao-66" target="hSlv8abUKsiorukbBcao-66">
          <mxGeometry relative="1" as="geometry" />
        </mxCell>
        <mxCell id="hSlv8abUKsiorukbBcao-68" value="modalidade" style="swimlane;childLayout=stackLayout;horizontal=1;startSize=50;horizontalStack=0;rounded=1;fontSize=14;fontStyle=0;strokeWidth=2;resizeParent=0;resizeLast=1;shadow=0;dashed=0;align=center;arcSize=4;whiteSpace=wrap;html=1;" vertex="1" parent="1">
          <mxGeometry x="360" y="1610" width="150" height="130" as="geometry" />
        </mxCell>
        <mxCell id="hSlv8abUKsiorukbBcao-69" value="&lt;div&gt;codigo PK&lt;/div&gt;&lt;div&gt;descricao&lt;/div&gt;&lt;div&gt;treinador&lt;/div&gt;&lt;div&gt;preparador_fisico&lt;/div&gt;" style="align=left;strokeColor=none;fillColor=none;spacingLeft=4;fontSize=12;verticalAlign=top;resizable=0;rotatable=0;part=1;html=1;" vertex="1" parent="hSlv8abUKsiorukbBcao-68">
          <mxGeometry y="50" width="150" height="80" as="geometry" />
        </mxCell>
        <mxCell id="hSlv8abUKsiorukbBcao-70" style="edgeStyle=orthogonalEdgeStyle;rounded=0;orthogonalLoop=1;jettySize=auto;html=1;exitX=0.5;exitY=1;exitDx=0;exitDy=0;" edge="1" parent="hSlv8abUKsiorukbBcao-68" source="hSlv8abUKsiorukbBcao-69" target="hSlv8abUKsiorukbBcao-69">
          <mxGeometry relative="1" as="geometry" />
        </mxCell>
        <mxCell id="hSlv8abUKsiorukbBcao-71" value="competicao" style="swimlane;childLayout=stackLayout;horizontal=1;startSize=50;horizontalStack=0;rounded=1;fontSize=14;fontStyle=0;strokeWidth=2;resizeParent=0;resizeLast=1;shadow=0;dashed=0;align=center;arcSize=4;whiteSpace=wrap;html=1;" vertex="1" parent="1">
          <mxGeometry x="580" y="1610" width="150" height="190" as="geometry" />
        </mxCell>
        <mxCell id="hSlv8abUKsiorukbBcao-72" value="&lt;div&gt;codigo PK&lt;/div&gt;&lt;div&gt;nome&lt;/div&gt;&lt;div&gt;data&lt;/div&gt;&lt;div&gt;local&lt;/div&gt;&lt;div&gt;cidade&lt;/div&gt;&lt;div&gt;estado&lt;/div&gt;&lt;div&gt;pais&lt;/div&gt;&lt;div&gt;codigo_modalidade FK&lt;/div&gt;" style="align=left;strokeColor=none;fillColor=none;spacingLeft=4;fontSize=12;verticalAlign=top;resizable=0;rotatable=0;part=1;html=1;" vertex="1" parent="hSlv8abUKsiorukbBcao-71">
          <mxGeometry y="50" width="150" height="140" as="geometry" />
        </mxCell>
        <mxCell id="hSlv8abUKsiorukbBcao-73" style="edgeStyle=orthogonalEdgeStyle;rounded=0;orthogonalLoop=1;jettySize=auto;html=1;exitX=0.5;exitY=1;exitDx=0;exitDy=0;" edge="1" parent="hSlv8abUKsiorukbBcao-71" source="hSlv8abUKsiorukbBcao-72" target="hSlv8abUKsiorukbBcao-72">
          <mxGeometry relative="1" as="geometry" />
        </mxCell>
        <mxCell id="hSlv8abUKsiorukbBcao-74" value="" style="edgeStyle=entityRelationEdgeStyle;fontSize=12;html=1;endArrow=ERoneToMany;startArrow=ERmandOne;rounded=0;exitX=0;exitY=0.5;exitDx=0;exitDy=0;entryX=1.016;entryY=0.559;entryDx=0;entryDy=0;entryPerimeter=0;" edge="1" parent="1" source="hSlv8abUKsiorukbBcao-68" target="hSlv8abUKsiorukbBcao-66">
          <mxGeometry width="100" height="100" relative="1" as="geometry">
            <mxPoint x="270" y="1775" as="sourcePoint" />
            <mxPoint x="370" y="1675" as="targetPoint" />
          </mxGeometry>
        </mxCell>
        <mxCell id="hSlv8abUKsiorukbBcao-75" value="" style="edgeStyle=entityRelationEdgeStyle;fontSize=12;html=1;endArrow=ERoneToMany;startArrow=ERoneToMany;rounded=0;entryX=-0.01;entryY=0.079;entryDx=0;entryDy=0;entryPerimeter=0;exitX=1.028;exitY=0.628;exitDx=0;exitDy=0;exitPerimeter=0;" edge="1" parent="1" source="hSlv8abUKsiorukbBcao-69" target="hSlv8abUKsiorukbBcao-72">
          <mxGeometry width="100" height="100" relative="1" as="geometry">
            <mxPoint x="440" y="1710" as="sourcePoint" />
            <mxPoint x="540" y="1610" as="targetPoint" />
          </mxGeometry>
        </mxCell>
        <mxCell id="hSlv8abUKsiorukbBcao-76" value="&lt;font color=&quot;#ff0000&quot;&gt;EXERCICIO 3&lt;/font&gt;" style="text;html=1;align=left;verticalAlign=middle;whiteSpace=wrap;rounded=0;fontSize=20;" vertex="1" parent="1">
          <mxGeometry x="110" y="1880" width="205" height="30" as="geometry" />
        </mxCell>
        <mxCell id="hSlv8abUKsiorukbBcao-77" value="" style="edgeStyle=entityRelationEdgeStyle;fontSize=12;html=1;endArrow=ERoneToMany;startArrow=ERoneToMany;rounded=0;exitX=1;exitY=0.5;exitDx=0;exitDy=0;" edge="1" parent="1" source="hSlv8abUKsiorukbBcao-49">
          <mxGeometry width="100" height="100" relative="1" as="geometry">
            <mxPoint x="250" y="1530" as="sourcePoint" />
            <mxPoint x="350" y="1430" as="targetPoint" />
          </mxGeometry>
        </mxCell>
        <mxCell id="hSlv8abUKsiorukbBcao-78" value="editora" style="swimlane;childLayout=stackLayout;horizontal=1;startSize=50;horizontalStack=0;rounded=1;fontSize=14;fontStyle=0;strokeWidth=2;resizeParent=0;resizeLast=1;shadow=0;dashed=0;align=center;arcSize=4;whiteSpace=wrap;html=1;" vertex="1" parent="1">
          <mxGeometry x="120" y="1920" width="130" height="170" as="geometry" />
        </mxCell>
        <mxCell id="hSlv8abUKsiorukbBcao-79" value="&lt;div&gt;cnpj PK&lt;/div&gt;&lt;div&gt;nome&lt;/div&gt;&lt;div&gt;endereco&lt;/div&gt;&lt;div&gt;cidade&lt;/div&gt;&lt;div&gt;estado&lt;/div&gt;&lt;div&gt;pais&lt;/div&gt;&lt;div&gt;telefone&lt;/div&gt;" style="align=left;strokeColor=none;fillColor=none;spacingLeft=4;fontSize=12;verticalAlign=top;resizable=0;rotatable=0;part=1;html=1;" vertex="1" parent="hSlv8abUKsiorukbBcao-78">
          <mxGeometry y="50" width="130" height="120" as="geometry" />
        </mxCell>
        <mxCell id="hSlv8abUKsiorukbBcao-80" style="edgeStyle=orthogonalEdgeStyle;rounded=0;orthogonalLoop=1;jettySize=auto;html=1;exitX=0.5;exitY=1;exitDx=0;exitDy=0;" edge="1" parent="hSlv8abUKsiorukbBcao-78" source="hSlv8abUKsiorukbBcao-79" target="hSlv8abUKsiorukbBcao-79">
          <mxGeometry relative="1" as="geometry" />
        </mxCell>
        <mxCell id="hSlv8abUKsiorukbBcao-81" value="livro" style="swimlane;childLayout=stackLayout;horizontal=1;startSize=50;horizontalStack=0;rounded=1;fontSize=14;fontStyle=0;strokeWidth=2;resizeParent=0;resizeLast=1;shadow=0;dashed=0;align=center;arcSize=4;whiteSpace=wrap;html=1;" vertex="1" parent="1">
          <mxGeometry x="315" y="1920" width="145" height="180" as="geometry" />
        </mxCell>
        <mxCell id="hSlv8abUKsiorukbBcao-82" value="&lt;div&gt;codigo PK&lt;/div&gt;&lt;div&gt;titulo&amp;nbsp;&lt;/div&gt;&lt;div&gt;num_paginas&lt;/div&gt;&lt;div&gt;edicao&lt;/div&gt;&lt;div&gt;isbn&lt;/div&gt;&lt;div&gt;cnpj_editora FK&lt;/div&gt;&lt;div&gt;pdf_autor FK&lt;/div&gt;&lt;div&gt;codigo_categoria FK&lt;/div&gt;" style="align=left;strokeColor=none;fillColor=none;spacingLeft=4;fontSize=12;verticalAlign=top;resizable=0;rotatable=0;part=1;html=1;" vertex="1" parent="hSlv8abUKsiorukbBcao-81">
          <mxGeometry y="50" width="145" height="130" as="geometry" />
        </mxCell>
        <mxCell id="hSlv8abUKsiorukbBcao-83" style="edgeStyle=orthogonalEdgeStyle;rounded=0;orthogonalLoop=1;jettySize=auto;html=1;exitX=0.5;exitY=1;exitDx=0;exitDy=0;" edge="1" parent="hSlv8abUKsiorukbBcao-81" source="hSlv8abUKsiorukbBcao-82" target="hSlv8abUKsiorukbBcao-82">
          <mxGeometry relative="1" as="geometry" />
        </mxCell>
        <mxCell id="hSlv8abUKsiorukbBcao-84" value="autor" style="swimlane;childLayout=stackLayout;horizontal=1;startSize=50;horizontalStack=0;rounded=1;fontSize=14;fontStyle=0;strokeWidth=2;resizeParent=0;resizeLast=1;shadow=0;dashed=0;align=center;arcSize=4;whiteSpace=wrap;html=1;" vertex="1" parent="1">
          <mxGeometry x="540" y="1920" width="120" height="140" as="geometry" />
        </mxCell>
        <mxCell id="hSlv8abUKsiorukbBcao-85" value="&lt;div&gt;cpf PK&lt;/div&gt;&lt;div&gt;nome&lt;/div&gt;&lt;div&gt;cidade&lt;/div&gt;&lt;div&gt;estado&lt;/div&gt;&lt;div&gt;pais&lt;/div&gt;" style="align=left;strokeColor=none;fillColor=none;spacingLeft=4;fontSize=12;verticalAlign=top;resizable=0;rotatable=0;part=1;html=1;" vertex="1" parent="hSlv8abUKsiorukbBcao-84">
          <mxGeometry y="50" width="120" height="90" as="geometry" />
        </mxCell>
        <mxCell id="hSlv8abUKsiorukbBcao-86" style="edgeStyle=orthogonalEdgeStyle;rounded=0;orthogonalLoop=1;jettySize=auto;html=1;exitX=0.5;exitY=1;exitDx=0;exitDy=0;" edge="1" parent="hSlv8abUKsiorukbBcao-84" source="hSlv8abUKsiorukbBcao-85" target="hSlv8abUKsiorukbBcao-85">
          <mxGeometry relative="1" as="geometry" />
        </mxCell>
        <mxCell id="hSlv8abUKsiorukbBcao-87" value="categoria" style="swimlane;childLayout=stackLayout;horizontal=1;startSize=50;horizontalStack=0;rounded=1;fontSize=14;fontStyle=0;strokeWidth=2;resizeParent=0;resizeLast=1;shadow=0;dashed=0;align=center;arcSize=4;whiteSpace=wrap;html=1;" vertex="1" parent="1">
          <mxGeometry x="540" y="2090" width="120" height="140" as="geometry" />
        </mxCell>
        <mxCell id="hSlv8abUKsiorukbBcao-88" value="&lt;div&gt;codigo PK&lt;/div&gt;&lt;div&gt;nome&lt;/div&gt;&lt;div&gt;localizacao&lt;/div&gt;&lt;div&gt;estado&lt;/div&gt;&lt;div&gt;pais&lt;/div&gt;&lt;div&gt;&lt;br&gt;&lt;/div&gt;" style="align=left;strokeColor=none;fillColor=none;spacingLeft=4;fontSize=12;verticalAlign=top;resizable=0;rotatable=0;part=1;html=1;" vertex="1" parent="hSlv8abUKsiorukbBcao-87">
          <mxGeometry y="50" width="120" height="90" as="geometry" />
        </mxCell>
        <mxCell id="hSlv8abUKsiorukbBcao-89" style="edgeStyle=orthogonalEdgeStyle;rounded=0;orthogonalLoop=1;jettySize=auto;html=1;exitX=0.5;exitY=1;exitDx=0;exitDy=0;" edge="1" parent="hSlv8abUKsiorukbBcao-87" source="hSlv8abUKsiorukbBcao-88" target="hSlv8abUKsiorukbBcao-88">
          <mxGeometry relative="1" as="geometry" />
        </mxCell>
        <mxCell id="hSlv8abUKsiorukbBcao-90" value="" style="edgeStyle=entityRelationEdgeStyle;fontSize=12;html=1;endArrow=ERoneToMany;startArrow=ERmandOne;rounded=0;entryX=-0.012;entryY=0.202;entryDx=0;entryDy=0;entryPerimeter=0;" edge="1" parent="1" target="hSlv8abUKsiorukbBcao-82">
          <mxGeometry width="100" height="100" relative="1" as="geometry">
            <mxPoint x="250" y="2040" as="sourcePoint" />
            <mxPoint x="350" y="1940" as="targetPoint" />
          </mxGeometry>
        </mxCell>
        <mxCell id="hSlv8abUKsiorukbBcao-91" value="" style="edgeStyle=entityRelationEdgeStyle;fontSize=12;html=1;endArrow=ERoneToMany;startArrow=ERoneToMany;rounded=0;entryX=-0.02;entryY=0.36;entryDx=0;entryDy=0;entryPerimeter=0;" edge="1" parent="1" target="hSlv8abUKsiorukbBcao-85">
          <mxGeometry width="100" height="100" relative="1" as="geometry">
            <mxPoint x="460" y="2040" as="sourcePoint" />
            <mxPoint x="560" y="1940" as="targetPoint" />
          </mxGeometry>
        </mxCell>
        <mxCell id="hSlv8abUKsiorukbBcao-92" value="" style="edgeStyle=entityRelationEdgeStyle;fontSize=12;html=1;endArrow=ERoneToMany;startArrow=ERoneToMany;rounded=0;entryX=-0.02;entryY=0.075;entryDx=0;entryDy=0;entryPerimeter=0;" edge="1" parent="1" target="hSlv8abUKsiorukbBcao-88">
          <mxGeometry width="100" height="100" relative="1" as="geometry">
            <mxPoint x="460" y="2078" as="sourcePoint" />
            <mxPoint x="538" y="2040" as="targetPoint" />
          </mxGeometry>
        </mxCell>
        <mxCell id="hSlv8abUKsiorukbBcao-94" value="&lt;font color=&quot;#ff0000&quot;&gt;EXERCICIO 4&lt;/font&gt;" style="text;html=1;align=left;verticalAlign=middle;whiteSpace=wrap;rounded=0;fontSize=20;" vertex="1" parent="1">
          <mxGeometry x="120" y="2270" width="205" height="30" as="geometry" />
        </mxCell>
        <mxCell id="hSlv8abUKsiorukbBcao-95" value="jogador" style="swimlane;childLayout=stackLayout;horizontal=1;startSize=50;horizontalStack=0;rounded=1;fontSize=14;fontStyle=0;strokeWidth=2;resizeParent=0;resizeLast=1;shadow=0;dashed=0;align=center;arcSize=4;whiteSpace=wrap;html=1;" vertex="1" parent="1">
          <mxGeometry x="120" y="2310" width="150" height="240" as="geometry" />
        </mxCell>
        <mxCell id="hSlv8abUKsiorukbBcao-96" value="&lt;div&gt;cpf PK&lt;/div&gt;&lt;div&gt;nome&lt;/div&gt;&lt;div&gt;endereco&lt;/div&gt;&lt;div&gt;cidade&amp;nbsp;&lt;/div&gt;&lt;div&gt;estado&lt;/div&gt;&lt;div&gt;pais&lt;/div&gt;&lt;div&gt;telefone&lt;/div&gt;&lt;div&gt;sexo&lt;/div&gt;&lt;div&gt;data_nasc&lt;/div&gt;&lt;div&gt;peso&lt;/div&gt;&lt;div&gt;altura&lt;/div&gt;&lt;div&gt;codigo_time&lt;/div&gt;" style="align=left;strokeColor=none;fillColor=none;spacingLeft=4;fontSize=12;verticalAlign=top;resizable=0;rotatable=0;part=1;html=1;" vertex="1" parent="hSlv8abUKsiorukbBcao-95">
          <mxGeometry y="50" width="150" height="190" as="geometry" />
        </mxCell>
        <mxCell id="hSlv8abUKsiorukbBcao-97" style="edgeStyle=orthogonalEdgeStyle;rounded=0;orthogonalLoop=1;jettySize=auto;html=1;exitX=0.5;exitY=1;exitDx=0;exitDy=0;" edge="1" parent="hSlv8abUKsiorukbBcao-95" source="hSlv8abUKsiorukbBcao-96" target="hSlv8abUKsiorukbBcao-96">
          <mxGeometry relative="1" as="geometry" />
        </mxCell>
        <mxCell id="hSlv8abUKsiorukbBcao-98" value="time" style="swimlane;childLayout=stackLayout;horizontal=1;startSize=50;horizontalStack=0;rounded=1;fontSize=14;fontStyle=0;strokeWidth=2;resizeParent=0;resizeLast=1;shadow=0;dashed=0;align=center;arcSize=4;whiteSpace=wrap;html=1;" vertex="1" parent="1">
          <mxGeometry x="340" y="2310" width="145" height="170" as="geometry" />
        </mxCell>
        <mxCell id="hSlv8abUKsiorukbBcao-99" value="&lt;div&gt;codigo PK&lt;/div&gt;&lt;div&gt;nome&lt;/div&gt;&lt;div&gt;cidade&lt;/div&gt;&lt;div&gt;estado&lt;/div&gt;&lt;div&gt;pais&lt;/div&gt;&lt;div&gt;cpf_treinador FK&lt;/div&gt;&lt;div&gt;cpf_preparador FK&lt;/div&gt;" style="align=left;strokeColor=none;fillColor=none;spacingLeft=4;fontSize=12;verticalAlign=top;resizable=0;rotatable=0;part=1;html=1;" vertex="1" parent="hSlv8abUKsiorukbBcao-98">
          <mxGeometry y="50" width="145" height="120" as="geometry" />
        </mxCell>
        <mxCell id="hSlv8abUKsiorukbBcao-100" style="edgeStyle=orthogonalEdgeStyle;rounded=0;orthogonalLoop=1;jettySize=auto;html=1;exitX=0.5;exitY=1;exitDx=0;exitDy=0;" edge="1" parent="hSlv8abUKsiorukbBcao-98" source="hSlv8abUKsiorukbBcao-99" target="hSlv8abUKsiorukbBcao-99">
          <mxGeometry relative="1" as="geometry" />
        </mxCell>
        <mxCell id="hSlv8abUKsiorukbBcao-104" value="tecnico" style="swimlane;childLayout=stackLayout;horizontal=1;startSize=50;horizontalStack=0;rounded=1;fontSize=14;fontStyle=0;strokeWidth=2;resizeParent=0;resizeLast=1;shadow=0;dashed=0;align=center;arcSize=4;whiteSpace=wrap;html=1;" vertex="1" parent="1">
          <mxGeometry x="560" y="2310" width="140" height="110" as="geometry" />
        </mxCell>
        <mxCell id="hSlv8abUKsiorukbBcao-105" value="&lt;div&gt;cpf PK&lt;/div&gt;&lt;div&gt;nome&lt;/div&gt;&lt;div&gt;pais&lt;/div&gt;" style="align=left;strokeColor=none;fillColor=none;spacingLeft=4;fontSize=12;verticalAlign=top;resizable=0;rotatable=0;part=1;html=1;" vertex="1" parent="hSlv8abUKsiorukbBcao-104">
          <mxGeometry y="50" width="140" height="60" as="geometry" />
        </mxCell>
        <mxCell id="hSlv8abUKsiorukbBcao-106" style="edgeStyle=orthogonalEdgeStyle;rounded=0;orthogonalLoop=1;jettySize=auto;html=1;exitX=0.5;exitY=1;exitDx=0;exitDy=0;" edge="1" parent="hSlv8abUKsiorukbBcao-104" source="hSlv8abUKsiorukbBcao-105" target="hSlv8abUKsiorukbBcao-105">
          <mxGeometry relative="1" as="geometry" />
        </mxCell>
        <mxCell id="hSlv8abUKsiorukbBcao-107" value="preparador_fisico" style="swimlane;childLayout=stackLayout;horizontal=1;startSize=50;horizontalStack=0;rounded=1;fontSize=14;fontStyle=0;strokeWidth=2;resizeParent=0;resizeLast=1;shadow=0;dashed=0;align=center;arcSize=4;whiteSpace=wrap;html=1;" vertex="1" parent="1">
          <mxGeometry x="560" y="2460" width="140" height="110" as="geometry" />
        </mxCell>
        <mxCell id="hSlv8abUKsiorukbBcao-108" value="&lt;div&gt;cpf PK&lt;/div&gt;&lt;div&gt;nome&lt;/div&gt;&lt;div&gt;pais&lt;/div&gt;" style="align=left;strokeColor=none;fillColor=none;spacingLeft=4;fontSize=12;verticalAlign=top;resizable=0;rotatable=0;part=1;html=1;" vertex="1" parent="hSlv8abUKsiorukbBcao-107">
          <mxGeometry y="50" width="140" height="60" as="geometry" />
        </mxCell>
        <mxCell id="hSlv8abUKsiorukbBcao-109" style="edgeStyle=orthogonalEdgeStyle;rounded=0;orthogonalLoop=1;jettySize=auto;html=1;exitX=0.5;exitY=1;exitDx=0;exitDy=0;" edge="1" parent="hSlv8abUKsiorukbBcao-107" source="hSlv8abUKsiorukbBcao-108" target="hSlv8abUKsiorukbBcao-108">
          <mxGeometry relative="1" as="geometry" />
        </mxCell>
        <mxCell id="hSlv8abUKsiorukbBcao-110" value="" style="edgeStyle=entityRelationEdgeStyle;fontSize=12;html=1;endArrow=ERoneToMany;rounded=0;exitX=-0.003;exitY=0.375;exitDx=0;exitDy=0;exitPerimeter=0;entryX=1.004;entryY=0.095;entryDx=0;entryDy=0;entryPerimeter=0;" edge="1" parent="1" source="hSlv8abUKsiorukbBcao-99" target="hSlv8abUKsiorukbBcao-96">
          <mxGeometry width="100" height="100" relative="1" as="geometry">
            <mxPoint x="270" y="2580" as="sourcePoint" />
            <mxPoint x="370" y="2480" as="targetPoint" />
          </mxGeometry>
        </mxCell>
        <mxCell id="hSlv8abUKsiorukbBcao-111" value="" style="edgeStyle=entityRelationEdgeStyle;fontSize=12;html=1;endArrow=ERmandOne;startArrow=ERmandOne;rounded=0;exitX=1;exitY=0.5;exitDx=0;exitDy=0;entryX=0;entryY=0.5;entryDx=0;entryDy=0;" edge="1" parent="1" source="hSlv8abUKsiorukbBcao-99" target="hSlv8abUKsiorukbBcao-104">
          <mxGeometry width="100" height="100" relative="1" as="geometry">
            <mxPoint x="440" y="2460" as="sourcePoint" />
            <mxPoint x="540" y="2360" as="targetPoint" />
          </mxGeometry>
        </mxCell>
        <mxCell id="hSlv8abUKsiorukbBcao-112" value="" style="edgeStyle=entityRelationEdgeStyle;fontSize=12;html=1;endArrow=ERmandOne;startArrow=ERmandOne;rounded=0;entryX=0;entryY=0;entryDx=0;entryDy=0;exitX=0.966;exitY=0.75;exitDx=0;exitDy=0;exitPerimeter=0;" edge="1" parent="1" source="hSlv8abUKsiorukbBcao-99" target="hSlv8abUKsiorukbBcao-108">
          <mxGeometry width="100" height="100" relative="1" as="geometry">
            <mxPoint x="490" y="2450" as="sourcePoint" />
            <mxPoint x="540" y="2390" as="targetPoint" />
          </mxGeometry>
        </mxCell>
        <mxCell id="hSlv8abUKsiorukbBcao-113" value="&lt;font color=&quot;#ff0000&quot;&gt;EXERCICIO 5&lt;/font&gt;" style="text;html=1;align=left;verticalAlign=middle;whiteSpace=wrap;rounded=0;fontSize=20;" vertex="1" parent="1">
          <mxGeometry x="120" y="2600" width="205" height="30" as="geometry" />
        </mxCell>
        <mxCell id="hSlv8abUKsiorukbBcao-114" value="funcionario" style="swimlane;childLayout=stackLayout;horizontal=1;startSize=50;horizontalStack=0;rounded=1;fontSize=14;fontStyle=0;strokeWidth=2;resizeParent=0;resizeLast=1;shadow=0;dashed=0;align=center;arcSize=4;whiteSpace=wrap;html=1;" vertex="1" parent="1">
          <mxGeometry x="120" y="2640" width="150" height="200" as="geometry" />
        </mxCell>
        <mxCell id="hSlv8abUKsiorukbBcao-115" value="&lt;div&gt;cpf PK&lt;/div&gt;&lt;div&gt;nome&lt;/div&gt;&lt;div&gt;endereco&lt;/div&gt;&lt;div&gt;cidade&lt;/div&gt;&lt;div&gt;estado&lt;/div&gt;&lt;div&gt;telefone&lt;/div&gt;&lt;div&gt;data_nasc&lt;/div&gt;&lt;div&gt;sexo&lt;/div&gt;&lt;div&gt;codigo_cargo FK&lt;/div&gt;" style="align=left;strokeColor=none;fillColor=none;spacingLeft=4;fontSize=12;verticalAlign=top;resizable=0;rotatable=0;part=1;html=1;" vertex="1" parent="hSlv8abUKsiorukbBcao-114">
          <mxGeometry y="50" width="150" height="150" as="geometry" />
        </mxCell>
        <mxCell id="hSlv8abUKsiorukbBcao-116" style="edgeStyle=orthogonalEdgeStyle;rounded=0;orthogonalLoop=1;jettySize=auto;html=1;exitX=0.5;exitY=1;exitDx=0;exitDy=0;" edge="1" parent="hSlv8abUKsiorukbBcao-114" source="hSlv8abUKsiorukbBcao-115" target="hSlv8abUKsiorukbBcao-115">
          <mxGeometry relative="1" as="geometry" />
        </mxCell>
        <mxCell id="hSlv8abUKsiorukbBcao-117" style="edgeStyle=orthogonalEdgeStyle;rounded=0;orthogonalLoop=1;jettySize=auto;html=1;exitX=0.25;exitY=0;exitDx=0;exitDy=0;entryX=0.5;entryY=0;entryDx=0;entryDy=0;" edge="1" parent="1" source="hSlv8abUKsiorukbBcao-98" target="hSlv8abUKsiorukbBcao-98">
          <mxGeometry relative="1" as="geometry" />
        </mxCell>
        <mxCell id="hSlv8abUKsiorukbBcao-118" value="cargo" style="swimlane;childLayout=stackLayout;horizontal=1;startSize=50;horizontalStack=0;rounded=1;fontSize=14;fontStyle=0;strokeWidth=2;resizeParent=0;resizeLast=1;shadow=0;dashed=0;align=center;arcSize=4;whiteSpace=wrap;html=1;" vertex="1" parent="1">
          <mxGeometry x="337.5" y="2660" width="150" height="130" as="geometry" />
        </mxCell>
        <mxCell id="hSlv8abUKsiorukbBcao-119" value="&lt;div&gt;codigo PK&lt;/div&gt;&lt;div&gt;nome&lt;/div&gt;&lt;div&gt;salario&lt;/div&gt;&lt;div&gt;codigo_depto&lt;/div&gt;" style="align=left;strokeColor=none;fillColor=none;spacingLeft=4;fontSize=12;verticalAlign=top;resizable=0;rotatable=0;part=1;html=1;" vertex="1" parent="hSlv8abUKsiorukbBcao-118">
          <mxGeometry y="50" width="150" height="80" as="geometry" />
        </mxCell>
        <mxCell id="hSlv8abUKsiorukbBcao-120" style="edgeStyle=orthogonalEdgeStyle;rounded=0;orthogonalLoop=1;jettySize=auto;html=1;exitX=0.5;exitY=1;exitDx=0;exitDy=0;" edge="1" parent="hSlv8abUKsiorukbBcao-118" source="hSlv8abUKsiorukbBcao-119" target="hSlv8abUKsiorukbBcao-119">
          <mxGeometry relative="1" as="geometry" />
        </mxCell>
        <mxCell id="hSlv8abUKsiorukbBcao-122" value="departamento" style="swimlane;childLayout=stackLayout;horizontal=1;startSize=50;horizontalStack=0;rounded=1;fontSize=14;fontStyle=0;strokeWidth=2;resizeParent=0;resizeLast=1;shadow=0;dashed=0;align=center;arcSize=4;whiteSpace=wrap;html=1;" vertex="1" parent="1">
          <mxGeometry x="540" y="2640" width="150" height="140" as="geometry" />
        </mxCell>
        <mxCell id="hSlv8abUKsiorukbBcao-123" value="&lt;div&gt;codigo PK&lt;/div&gt;&lt;div&gt;nome&lt;/div&gt;&lt;div&gt;sala&lt;/div&gt;&lt;div&gt;telefone&lt;/div&gt;&lt;div&gt;cpf_gerente FK&lt;/div&gt;" style="align=left;strokeColor=none;fillColor=none;spacingLeft=4;fontSize=12;verticalAlign=top;resizable=0;rotatable=0;part=1;html=1;" vertex="1" parent="hSlv8abUKsiorukbBcao-122">
          <mxGeometry y="50" width="150" height="90" as="geometry" />
        </mxCell>
        <mxCell id="hSlv8abUKsiorukbBcao-124" style="edgeStyle=orthogonalEdgeStyle;rounded=0;orthogonalLoop=1;jettySize=auto;html=1;exitX=0.5;exitY=1;exitDx=0;exitDy=0;" edge="1" parent="hSlv8abUKsiorukbBcao-122" source="hSlv8abUKsiorukbBcao-123" target="hSlv8abUKsiorukbBcao-123">
          <mxGeometry relative="1" as="geometry" />
        </mxCell>
        <mxCell id="hSlv8abUKsiorukbBcao-125" value="gerente" style="swimlane;childLayout=stackLayout;horizontal=1;startSize=50;horizontalStack=0;rounded=1;fontSize=14;fontStyle=0;strokeWidth=2;resizeParent=0;resizeLast=1;shadow=0;dashed=0;align=center;arcSize=4;whiteSpace=wrap;html=1;" vertex="1" parent="1">
          <mxGeometry x="760" y="2640" width="150" height="150" as="geometry" />
        </mxCell>
        <mxCell id="hSlv8abUKsiorukbBcao-126" value="&lt;div&gt;cpf PK&lt;/div&gt;&lt;div&gt;nome&lt;/div&gt;&lt;div&gt;endereco&lt;/div&gt;&lt;div&gt;cidade&lt;/div&gt;&lt;div&gt;estado&lt;/div&gt;&lt;div&gt;telefone&lt;/div&gt;" style="align=left;strokeColor=none;fillColor=none;spacingLeft=4;fontSize=12;verticalAlign=top;resizable=0;rotatable=0;part=1;html=1;" vertex="1" parent="hSlv8abUKsiorukbBcao-125">
          <mxGeometry y="50" width="150" height="100" as="geometry" />
        </mxCell>
        <mxCell id="hSlv8abUKsiorukbBcao-127" style="edgeStyle=orthogonalEdgeStyle;rounded=0;orthogonalLoop=1;jettySize=auto;html=1;exitX=0.5;exitY=1;exitDx=0;exitDy=0;" edge="1" parent="hSlv8abUKsiorukbBcao-125" source="hSlv8abUKsiorukbBcao-126" target="hSlv8abUKsiorukbBcao-126">
          <mxGeometry relative="1" as="geometry" />
        </mxCell>
        <mxCell id="hSlv8abUKsiorukbBcao-129" value="" style="edgeStyle=entityRelationEdgeStyle;fontSize=12;html=1;endArrow=ERoneToMany;startArrow=ERmandOne;rounded=0;entryX=1;entryY=0.25;entryDx=0;entryDy=0;exitX=0;exitY=0.75;exitDx=0;exitDy=0;" edge="1" parent="1" source="hSlv8abUKsiorukbBcao-119" target="hSlv8abUKsiorukbBcao-115">
          <mxGeometry width="100" height="100" relative="1" as="geometry">
            <mxPoint x="270" y="2770" as="sourcePoint" />
            <mxPoint x="370" y="2670" as="targetPoint" />
          </mxGeometry>
        </mxCell>
        <mxCell id="hSlv8abUKsiorukbBcao-130" value="" style="edgeStyle=entityRelationEdgeStyle;fontSize=12;html=1;endArrow=ERoneToMany;startArrow=ERmandOne;rounded=0;entryX=1;entryY=0.25;entryDx=0;entryDy=0;exitX=0;exitY=0.75;exitDx=0;exitDy=0;" edge="1" parent="1" source="hSlv8abUKsiorukbBcao-123" target="hSlv8abUKsiorukbBcao-119">
          <mxGeometry width="100" height="100" relative="1" as="geometry">
            <mxPoint x="532.5000000000002" y="2777.5" as="sourcePoint" />
            <mxPoint x="480.0000000000002" y="2730" as="targetPoint" />
          </mxGeometry>
        </mxCell>
        <mxCell id="hSlv8abUKsiorukbBcao-132" value="&lt;font color=&quot;#ff0000&quot;&gt;EXERCICIO 6&lt;/font&gt;" style="text;html=1;align=left;verticalAlign=middle;whiteSpace=wrap;rounded=0;fontSize=20;" vertex="1" parent="1">
          <mxGeometry x="120" y="2880" width="205" height="30" as="geometry" />
        </mxCell>
        <mxCell id="hSlv8abUKsiorukbBcao-133" value="" style="edgeStyle=entityRelationEdgeStyle;fontSize=12;html=1;endArrow=ERmandOne;startArrow=ERmandOne;rounded=0;" edge="1" parent="1">
          <mxGeometry width="100" height="100" relative="1" as="geometry">
            <mxPoint x="690" y="2750" as="sourcePoint" />
            <mxPoint x="760" y="2720" as="targetPoint" />
          </mxGeometry>
        </mxCell>
        <mxCell id="hSlv8abUKsiorukbBcao-134" value="paciente" style="swimlane;childLayout=stackLayout;horizontal=1;startSize=50;horizontalStack=0;rounded=1;fontSize=14;fontStyle=0;strokeWidth=2;resizeParent=0;resizeLast=1;shadow=0;dashed=0;align=center;arcSize=4;whiteSpace=wrap;html=1;" vertex="1" parent="1">
          <mxGeometry x="120" y="2920" width="130" height="170" as="geometry" />
        </mxCell>
        <mxCell id="hSlv8abUKsiorukbBcao-135" value="cpf PK&lt;div&gt;nome&lt;/div&gt;&lt;div&gt;endereco&lt;/div&gt;&lt;div&gt;cidade&lt;/div&gt;&lt;div&gt;estado&lt;/div&gt;&lt;div&gt;data_nasc&lt;/div&gt;&lt;div&gt;sexo&lt;/div&gt;" style="align=left;strokeColor=none;fillColor=none;spacingLeft=4;fontSize=12;verticalAlign=top;resizable=0;rotatable=0;part=1;html=1;" vertex="1" parent="hSlv8abUKsiorukbBcao-134">
          <mxGeometry y="50" width="130" height="120" as="geometry" />
        </mxCell>
        <mxCell id="hSlv8abUKsiorukbBcao-136" style="edgeStyle=orthogonalEdgeStyle;rounded=0;orthogonalLoop=1;jettySize=auto;html=1;exitX=0.5;exitY=1;exitDx=0;exitDy=0;" edge="1" parent="hSlv8abUKsiorukbBcao-134" source="hSlv8abUKsiorukbBcao-135" target="hSlv8abUKsiorukbBcao-135">
          <mxGeometry relative="1" as="geometry" />
        </mxCell>
        <mxCell id="hSlv8abUKsiorukbBcao-139" value="exame" style="swimlane;childLayout=stackLayout;horizontal=1;startSize=50;horizontalStack=0;rounded=1;fontSize=14;fontStyle=0;strokeWidth=2;resizeParent=0;resizeLast=1;shadow=0;dashed=0;align=center;arcSize=4;whiteSpace=wrap;html=1;" vertex="1" parent="1">
          <mxGeometry x="120" y="3130" width="130" height="170" as="geometry" />
        </mxCell>
        <mxCell id="hSlv8abUKsiorukbBcao-140" value="codigo PK&lt;div&gt;descricao&lt;/div&gt;&lt;div&gt;data&lt;/div&gt;&lt;div&gt;hora&lt;/div&gt;&lt;div&gt;medicacao&lt;/div&gt;&lt;div&gt;observacoes&lt;/div&gt;&lt;div&gt;codigo_consulta FK&lt;/div&gt;" style="align=left;strokeColor=none;fillColor=none;spacingLeft=4;fontSize=12;verticalAlign=top;resizable=0;rotatable=0;part=1;html=1;" vertex="1" parent="hSlv8abUKsiorukbBcao-139">
          <mxGeometry y="50" width="130" height="120" as="geometry" />
        </mxCell>
        <mxCell id="hSlv8abUKsiorukbBcao-141" style="edgeStyle=orthogonalEdgeStyle;rounded=0;orthogonalLoop=1;jettySize=auto;html=1;exitX=0.5;exitY=1;exitDx=0;exitDy=0;" edge="1" parent="hSlv8abUKsiorukbBcao-139" source="hSlv8abUKsiorukbBcao-140" target="hSlv8abUKsiorukbBcao-140">
          <mxGeometry relative="1" as="geometry" />
        </mxCell>
        <mxCell id="hSlv8abUKsiorukbBcao-142" value="consulta" style="swimlane;childLayout=stackLayout;horizontal=1;startSize=50;horizontalStack=0;rounded=1;fontSize=14;fontStyle=0;strokeWidth=2;resizeParent=0;resizeLast=1;shadow=0;dashed=0;align=center;arcSize=4;whiteSpace=wrap;html=1;" vertex="1" parent="1">
          <mxGeometry x="337.5" y="2920" width="132.5" height="150" as="geometry" />
        </mxCell>
        <mxCell id="hSlv8abUKsiorukbBcao-143" value="codigo PK&lt;div&gt;data&lt;/div&gt;&lt;div&gt;hora&lt;/div&gt;&lt;div&gt;descricao&lt;/div&gt;&lt;div&gt;cpf_paciente FK&lt;/div&gt;&lt;div&gt;cpf_medico&lt;/div&gt;" style="align=left;strokeColor=none;fillColor=none;spacingLeft=4;fontSize=12;verticalAlign=top;resizable=0;rotatable=0;part=1;html=1;" vertex="1" parent="hSlv8abUKsiorukbBcao-142">
          <mxGeometry y="50" width="132.5" height="100" as="geometry" />
        </mxCell>
        <mxCell id="hSlv8abUKsiorukbBcao-145" value="medico" style="swimlane;childLayout=stackLayout;horizontal=1;startSize=50;horizontalStack=0;rounded=1;fontSize=14;fontStyle=0;strokeWidth=2;resizeParent=0;resizeLast=1;shadow=0;dashed=0;align=center;arcSize=4;whiteSpace=wrap;html=1;" vertex="1" parent="1">
          <mxGeometry x="548.75" y="2920" width="151.25" height="180" as="geometry" />
        </mxCell>
        <mxCell id="hSlv8abUKsiorukbBcao-146" value="cpf PK&lt;div&gt;crm&lt;/div&gt;&lt;div&gt;nome&lt;/div&gt;&lt;div&gt;endereco&lt;/div&gt;&lt;div&gt;cidade&lt;/div&gt;&lt;div&gt;estado&lt;/div&gt;&lt;div&gt;telefone&lt;/div&gt;&lt;div&gt;codigo_especialidades FK&lt;/div&gt;" style="align=left;strokeColor=none;fillColor=none;spacingLeft=4;fontSize=12;verticalAlign=top;resizable=0;rotatable=0;part=1;html=1;" vertex="1" parent="hSlv8abUKsiorukbBcao-145">
          <mxGeometry y="50" width="151.25" height="130" as="geometry" />
        </mxCell>
        <mxCell id="hSlv8abUKsiorukbBcao-148" value="especialidade" style="swimlane;childLayout=stackLayout;horizontal=1;startSize=50;horizontalStack=0;rounded=1;fontSize=14;fontStyle=0;strokeWidth=2;resizeParent=0;resizeLast=1;shadow=0;dashed=0;align=center;arcSize=4;whiteSpace=wrap;html=1;" vertex="1" parent="1">
          <mxGeometry x="760" y="2970" width="140" height="110" as="geometry" />
        </mxCell>
        <mxCell id="hSlv8abUKsiorukbBcao-149" value="codigo PK&lt;div&gt;nome&lt;/div&gt;&lt;div&gt;descricao&lt;/div&gt;" style="align=left;strokeColor=none;fillColor=none;spacingLeft=4;fontSize=12;verticalAlign=top;resizable=0;rotatable=0;part=1;html=1;" vertex="1" parent="hSlv8abUKsiorukbBcao-148">
          <mxGeometry y="50" width="140" height="60" as="geometry" />
        </mxCell>
        <mxCell id="hSlv8abUKsiorukbBcao-150" value="" style="edgeStyle=entityRelationEdgeStyle;fontSize=12;html=1;endArrow=ERoneToMany;startArrow=ERmandOne;rounded=0;entryX=0.005;entryY=0.178;entryDx=0;entryDy=0;entryPerimeter=0;" edge="1" parent="1" target="hSlv8abUKsiorukbBcao-143">
          <mxGeometry width="100" height="100" relative="1" as="geometry">
            <mxPoint x="250" y="3040" as="sourcePoint" />
            <mxPoint x="330" y="2970" as="targetPoint" />
          </mxGeometry>
        </mxCell>
        <mxCell id="hSlv8abUKsiorukbBcao-151" value="" style="edgeStyle=entityRelationEdgeStyle;fontSize=12;html=1;endArrow=ERoneToMany;startArrow=ERmandOne;rounded=0;entryX=1;entryY=0.25;entryDx=0;entryDy=0;exitX=0;exitY=0.5;exitDx=0;exitDy=0;" edge="1" parent="1" source="hSlv8abUKsiorukbBcao-146" target="hSlv8abUKsiorukbBcao-143">
          <mxGeometry width="100" height="100" relative="1" as="geometry">
            <mxPoint x="470" y="3002" as="sourcePoint" />
            <mxPoint x="558" y="2950" as="targetPoint" />
          </mxGeometry>
        </mxCell>
        <mxCell id="hSlv8abUKsiorukbBcao-152" value="" style="edgeStyle=entityRelationEdgeStyle;fontSize=12;html=1;endArrow=ERoneToMany;startArrow=ERmandOne;rounded=0;entryX=1;entryY=0.538;entryDx=0;entryDy=0;exitX=0;exitY=0.75;exitDx=0;exitDy=0;entryPerimeter=0;" edge="1" parent="1" source="hSlv8abUKsiorukbBcao-149" target="hSlv8abUKsiorukbBcao-146">
          <mxGeometry width="100" height="100" relative="1" as="geometry">
            <mxPoint x="799" y="3070" as="sourcePoint" />
            <mxPoint x="720" y="3030" as="targetPoint" />
          </mxGeometry>
        </mxCell>
        <mxCell id="hSlv8abUKsiorukbBcao-153" value="" style="edgeStyle=entityRelationEdgeStyle;fontSize=12;html=1;endArrow=ERoneToMany;startArrow=ERmandOne;rounded=0;entryX=1;entryY=0.25;entryDx=0;entryDy=0;exitX=0;exitY=0.75;exitDx=0;exitDy=0;" edge="1" parent="1" source="hSlv8abUKsiorukbBcao-143" target="hSlv8abUKsiorukbBcao-140">
          <mxGeometry width="100" height="100" relative="1" as="geometry">
            <mxPoint x="430" y="3210" as="sourcePoint" />
            <mxPoint x="351" y="3170" as="targetPoint" />
          </mxGeometry>
        </mxCell>
        <mxCell id="hSlv8abUKsiorukbBcao-154" value="&lt;font color=&quot;#ff0000&quot;&gt;EXERCICIO 7&lt;/font&gt;" style="text;html=1;align=left;verticalAlign=middle;whiteSpace=wrap;rounded=0;fontSize=20;" vertex="1" parent="1">
          <mxGeometry x="119" y="3350" width="205" height="30" as="geometry" />
        </mxCell>
        <mxCell id="hSlv8abUKsiorukbBcao-155" value="cliente" style="swimlane;childLayout=stackLayout;horizontal=1;startSize=50;horizontalStack=0;rounded=1;fontSize=14;fontStyle=0;strokeWidth=2;resizeParent=0;resizeLast=1;shadow=0;dashed=0;align=center;arcSize=4;whiteSpace=wrap;html=1;" vertex="1" parent="1">
          <mxGeometry x="120" y="3400" width="130" height="170" as="geometry" />
        </mxCell>
        <mxCell id="hSlv8abUKsiorukbBcao-156" value="cpf PK&lt;div&gt;nome&lt;/div&gt;&lt;div&gt;endereco&lt;/div&gt;&lt;div&gt;cidade&lt;/div&gt;&lt;div&gt;estado&lt;/div&gt;&lt;div&gt;telefone&lt;/div&gt;" style="align=left;strokeColor=none;fillColor=none;spacingLeft=4;fontSize=12;verticalAlign=top;resizable=0;rotatable=0;part=1;html=1;" vertex="1" parent="hSlv8abUKsiorukbBcao-155">
          <mxGeometry y="50" width="130" height="120" as="geometry" />
        </mxCell>
        <mxCell id="hSlv8abUKsiorukbBcao-157" style="edgeStyle=orthogonalEdgeStyle;rounded=0;orthogonalLoop=1;jettySize=auto;html=1;exitX=0.5;exitY=1;exitDx=0;exitDy=0;" edge="1" parent="hSlv8abUKsiorukbBcao-155" source="hSlv8abUKsiorukbBcao-156" target="hSlv8abUKsiorukbBcao-156">
          <mxGeometry relative="1" as="geometry" />
        </mxCell>
        <mxCell id="hSlv8abUKsiorukbBcao-158" value="orcamento" style="swimlane;childLayout=stackLayout;horizontal=1;startSize=50;horizontalStack=0;rounded=1;fontSize=14;fontStyle=0;strokeWidth=2;resizeParent=0;resizeLast=1;shadow=0;dashed=0;align=center;arcSize=4;whiteSpace=wrap;html=1;" vertex="1" parent="1">
          <mxGeometry x="337.5" y="3400" width="130" height="170" as="geometry" />
        </mxCell>
        <mxCell id="hSlv8abUKsiorukbBcao-159" value="codigo PK&lt;div&gt;data&amp;nbsp;&lt;/div&gt;&lt;div&gt;hora&lt;/div&gt;&lt;div&gt;descricao&lt;/div&gt;&lt;div&gt;valor&lt;/div&gt;&lt;div&gt;cpf_cliente FK&lt;/div&gt;&lt;div&gt;cpf_funcionamente&lt;/div&gt;" style="align=left;strokeColor=none;fillColor=none;spacingLeft=4;fontSize=12;verticalAlign=top;resizable=0;rotatable=0;part=1;html=1;" vertex="1" parent="hSlv8abUKsiorukbBcao-158">
          <mxGeometry y="50" width="130" height="120" as="geometry" />
        </mxCell>
        <mxCell id="hSlv8abUKsiorukbBcao-160" style="edgeStyle=orthogonalEdgeStyle;rounded=0;orthogonalLoop=1;jettySize=auto;html=1;exitX=0.5;exitY=1;exitDx=0;exitDy=0;" edge="1" parent="hSlv8abUKsiorukbBcao-158" source="hSlv8abUKsiorukbBcao-159" target="hSlv8abUKsiorukbBcao-159">
          <mxGeometry relative="1" as="geometry" />
        </mxCell>
        <mxCell id="hSlv8abUKsiorukbBcao-161" value="funcionario" style="swimlane;childLayout=stackLayout;horizontal=1;startSize=50;horizontalStack=0;rounded=1;fontSize=14;fontStyle=0;strokeWidth=2;resizeParent=0;resizeLast=1;shadow=0;dashed=0;align=center;arcSize=4;whiteSpace=wrap;html=1;" vertex="1" parent="1">
          <mxGeometry x="550" y="3400" width="150" height="180" as="geometry" />
        </mxCell>
        <mxCell id="hSlv8abUKsiorukbBcao-162" value="cpf PK&lt;div&gt;nome&lt;/div&gt;&lt;div&gt;endereco&lt;/div&gt;&lt;div&gt;cidade&lt;/div&gt;&lt;div&gt;estado&lt;/div&gt;&lt;div&gt;telefone&lt;/div&gt;&lt;div&gt;codigo_departamento FK&lt;/div&gt;" style="align=left;strokeColor=none;fillColor=none;spacingLeft=4;fontSize=12;verticalAlign=top;resizable=0;rotatable=0;part=1;html=1;" vertex="1" parent="hSlv8abUKsiorukbBcao-161">
          <mxGeometry y="50" width="150" height="130" as="geometry" />
        </mxCell>
        <mxCell id="hSlv8abUKsiorukbBcao-163" style="edgeStyle=orthogonalEdgeStyle;rounded=0;orthogonalLoop=1;jettySize=auto;html=1;exitX=0.5;exitY=1;exitDx=0;exitDy=0;" edge="1" parent="hSlv8abUKsiorukbBcao-161" source="hSlv8abUKsiorukbBcao-162" target="hSlv8abUKsiorukbBcao-162">
          <mxGeometry relative="1" as="geometry" />
        </mxCell>
        <mxCell id="hSlv8abUKsiorukbBcao-164" value="departamento" style="swimlane;childLayout=stackLayout;horizontal=1;startSize=50;horizontalStack=0;rounded=1;fontSize=14;fontStyle=0;strokeWidth=2;resizeParent=0;resizeLast=1;shadow=0;dashed=0;align=center;arcSize=4;whiteSpace=wrap;html=1;" vertex="1" parent="1">
          <mxGeometry x="770" y="3400" width="150" height="130" as="geometry" />
        </mxCell>
        <mxCell id="hSlv8abUKsiorukbBcao-165" value="codigo PK&lt;div&gt;nome&lt;/div&gt;&lt;div&gt;telefone&lt;/div&gt;&lt;div&gt;cpf_coordenador FK&lt;/div&gt;" style="align=left;strokeColor=none;fillColor=none;spacingLeft=4;fontSize=12;verticalAlign=top;resizable=0;rotatable=0;part=1;html=1;" vertex="1" parent="hSlv8abUKsiorukbBcao-164">
          <mxGeometry y="50" width="150" height="80" as="geometry" />
        </mxCell>
        <mxCell id="hSlv8abUKsiorukbBcao-166" style="edgeStyle=orthogonalEdgeStyle;rounded=0;orthogonalLoop=1;jettySize=auto;html=1;exitX=0.5;exitY=1;exitDx=0;exitDy=0;" edge="1" parent="hSlv8abUKsiorukbBcao-164" source="hSlv8abUKsiorukbBcao-165" target="hSlv8abUKsiorukbBcao-165">
          <mxGeometry relative="1" as="geometry" />
        </mxCell>
        <mxCell id="hSlv8abUKsiorukbBcao-167" value="coordenador" style="swimlane;childLayout=stackLayout;horizontal=1;startSize=50;horizontalStack=0;rounded=1;fontSize=14;fontStyle=0;strokeWidth=2;resizeParent=0;resizeLast=1;shadow=0;dashed=0;align=center;arcSize=4;whiteSpace=wrap;html=1;" vertex="1" parent="1">
          <mxGeometry x="990" y="3400" width="150" height="130" as="geometry" />
        </mxCell>
        <mxCell id="hSlv8abUKsiorukbBcao-168" value="codigo PK&lt;div&gt;nome&lt;/div&gt;" style="align=left;strokeColor=none;fillColor=none;spacingLeft=4;fontSize=12;verticalAlign=top;resizable=0;rotatable=0;part=1;html=1;" vertex="1" parent="hSlv8abUKsiorukbBcao-167">
          <mxGeometry y="50" width="150" height="80" as="geometry" />
        </mxCell>
        <mxCell id="hSlv8abUKsiorukbBcao-169" style="edgeStyle=orthogonalEdgeStyle;rounded=0;orthogonalLoop=1;jettySize=auto;html=1;exitX=0.5;exitY=1;exitDx=0;exitDy=0;" edge="1" parent="hSlv8abUKsiorukbBcao-167" source="hSlv8abUKsiorukbBcao-168" target="hSlv8abUKsiorukbBcao-168">
          <mxGeometry relative="1" as="geometry" />
        </mxCell>
        <mxCell id="hSlv8abUKsiorukbBcao-170" value="" style="edgeStyle=entityRelationEdgeStyle;fontSize=12;html=1;endArrow=ERoneToMany;startArrow=ERmandOne;rounded=0;entryX=0;entryY=0.25;entryDx=0;entryDy=0;" edge="1" parent="1" target="hSlv8abUKsiorukbBcao-162">
          <mxGeometry width="100" height="100" relative="1" as="geometry">
            <mxPoint x="467.5" y="3530" as="sourcePoint" />
            <mxPoint x="567.5" y="3430" as="targetPoint" />
          </mxGeometry>
        </mxCell>
        <mxCell id="hSlv8abUKsiorukbBcao-171" value="" style="edgeStyle=entityRelationEdgeStyle;fontSize=12;html=1;endArrow=ERoneToMany;startArrow=ERmandOne;rounded=0;entryX=1;entryY=0.5;entryDx=0;entryDy=0;exitX=0;exitY=0.5;exitDx=0;exitDy=0;" edge="1" parent="1" source="hSlv8abUKsiorukbBcao-164" target="hSlv8abUKsiorukbBcao-162">
          <mxGeometry width="100" height="100" relative="1" as="geometry">
            <mxPoint x="720" y="3547" as="sourcePoint" />
            <mxPoint x="802.5" y="3500" as="targetPoint" />
          </mxGeometry>
        </mxCell>
        <mxCell id="hSlv8abUKsiorukbBcao-173" value="" style="edgeStyle=entityRelationEdgeStyle;fontSize=12;html=1;endArrow=ERmandOne;startArrow=ERmandOne;rounded=0;entryX=0;entryY=0.5;entryDx=0;entryDy=0;" edge="1" parent="1" target="hSlv8abUKsiorukbBcao-167">
          <mxGeometry width="100" height="100" relative="1" as="geometry">
            <mxPoint x="920" y="3490" as="sourcePoint" />
            <mxPoint x="1020" y="3390" as="targetPoint" />
          </mxGeometry>
        </mxCell>
        <mxCell id="hSlv8abUKsiorukbBcao-174" value="" style="edgeStyle=entityRelationEdgeStyle;fontSize=12;html=1;endArrow=ERoneToMany;startArrow=ERmandOne;rounded=0;entryX=0;entryY=0.25;entryDx=0;entryDy=0;" edge="1" parent="1" target="hSlv8abUKsiorukbBcao-159">
          <mxGeometry width="100" height="100" relative="1" as="geometry">
            <mxPoint x="250" y="3510" as="sourcePoint" />
            <mxPoint x="350" y="3410" as="targetPoint" />
          </mxGeometry>
        </mxCell>
      </root>
    </mxGraphModel>
  </diagram>
</mxfile>
